<svg width="16" height="16" viewBox="0 0 16 16" fill="none" xmlns="http://www.w3.org/2000/svg">
<path fill-rule="evenodd" clip-rule="evenodd" d="M2.40149 3.20341V8.00213H15.9957V11.2013C15.9957 13.1336 14.618 14.7502 12.7966 15.1213V16H11.197V15.1981H4.79872V16H3.19915V15.1213C1.37777 14.7459 0 13.1336 0 11.2013V8.00213H0.801919V3.19915C0.801919 1.43322 2.23514 0 4.00107 0C4.78166 0 5.494 0.294322 6.04852 0.76353C6.91869 0.422287 7.98081 0.588643 8.66329 1.27113L9.23061 1.83844L5.83951 5.22954L5.27219 4.66649C4.82005 4.21434 4.56838 3.60864 4.56838 2.96881C4.56838 2.57211 4.67502 2.19675 4.85417 1.85551C4.60677 1.69768 4.31672 1.60384 4.00107 1.60384C3.1181 1.60384 2.40149 2.32045 2.40149 3.20341ZM11.9947 13.6028C13.3212 13.6028 14.3962 12.5236 14.3962 11.2013V9.60171H1.59957V11.2013C1.59957 12.5279 2.67875 13.6028 4.00107 13.6028H11.9947Z" fill="#7C7C7C"/>
</svg>
