<svg width="13" height="14" viewBox="0 0 13 14" fill="none" xmlns="http://www.w3.org/2000/svg">
<path d="M3.33333 2C3.88562 2 4.33333 1.55228 4.33333 1C4.33333 0.447715 3.88562 0 3.33333 0V2ZM-1 4.33333C-1 4.88562 -0.552285 5.33333 0 5.33333C0.552285 5.33333 1 4.88562 1 4.33333H-1ZM11 4.33333C11 4.88562 11.4477 5.33333 12 5.33333C12.5523 5.33333 13 4.88562 13 4.33333H11ZM8.66667 0C8.11438 0 7.66667 0.447715 7.66667 1C7.66667 1.55228 8.11438 2 8.66667 2V0ZM8.66667 12C8.11438 12 7.66667 12.4477 7.66667 13C7.66667 13.5523 8.11438 14 8.66667 14V12ZM13 9.66667C13 9.11438 12.5523 8.66667 12 8.66667C11.4477 8.66667 11 9.11438 11 9.66667H13ZM1 9.66667C1 9.11438 0.552285 8.66667 0 8.66667C-0.552285 8.66667 -1 9.11438 -1 9.66667H1ZM3.33333 14C3.88562 14 4.33333 13.5523 4.33333 13C4.33333 12.4477 3.88562 12 3.33333 12V14ZM3.33333 0H1.33333V2H3.33333V0ZM1.33333 0C0.0446689 0 -1 1.04467 -1 2.33333H1C1 2.14924 1.14924 2 1.33333 2V0ZM-1 2.33333V4.33333H1V2.33333H-1ZM13 4.33333V2.33333H11V4.33333H13ZM13 2.33333C13 1.04467 11.9553 0 10.6667 0V2C10.8508 2 11 2.14924 11 2.33333H13ZM10.6667 0H8.66667V2H10.6667V0ZM8.66667 14H10.6667V12H8.66667V14ZM10.6667 14C11.9553 14 13 12.9553 13 11.6667H11C11 11.8508 10.8508 12 10.6667 12V14ZM13 11.6667V9.66667H11V11.6667H13ZM-1 9.66667V11.6667H1V9.66667H-1ZM-1 11.6667C-1 12.9553 0.0446691 14 1.33333 14V12C1.14924 12 1 11.8508 1 11.6667H-1ZM1.33333 14H3.33333V12H1.33333V14Z" fill="#20CD84"/>
</svg>
